<?xml version="1.0" encoding="utf-8"?>
<!-- Generator: Adobe Illustrator 16.0.0, SVG Export Plug-In . SVG Version: 6.00 Build 0)  -->
<!DOCTYPE svg PUBLIC "-//W3C//DTD SVG 1.1//EN" "http://www.w3.org/Graphics/SVG/1.1/DTD/svg11.dtd" [
	<!ENTITY ns_extend "http://ns.adobe.com/Extensibility/1.0/">
	<!ENTITY ns_ai "http://ns.adobe.com/AdobeIllustrator/10.0/">
	<!ENTITY ns_graphs "http://ns.adobe.com/Graphs/1.0/">
	<!ENTITY ns_vars "http://ns.adobe.com/Variables/1.0/">
	<!ENTITY ns_imrep "http://ns.adobe.com/ImageReplacement/1.0/">
	<!ENTITY ns_sfw "http://ns.adobe.com/SaveForWeb/1.0/">
	<!ENTITY ns_custom "http://ns.adobe.com/GenericCustomNamespace/1.0/">
	<!ENTITY ns_adobe_xpath "http://ns.adobe.com/XPath/1.0/">
]>
<svg version="1.1" id="Layer_1" xmlns:x="&ns_extend;" xmlns:i="&ns_ai;" xmlns:graph="&ns_graphs;"
	 xmlns="http://www.w3.org/2000/svg" xmlns:xlink="http://www.w3.org/1999/xlink" x="0px" y="0px" width="40px" height="40px"
	 viewBox="0 0 40 40" enable-background="new 0 0 40 40" xml:space="preserve">
<metadata>
	<sfw  xmlns="&ns_sfw;">
		<slices></slices>
		<sliceSourceBounds  width="35.769" height="34.609" y="-67.108" x="32.301" bottomLeftOrigin="true"></sliceSourceBounds>
	</sfw>
</metadata>
<g>
	<g>
		<path fill="#040000" d="M36.819,37.108c-0.32,0-0.64-0.122-0.884-0.366l-10.64-10.641c-0.488-0.488-0.488-1.279,0-1.768
			s1.279-0.488,1.768,0l10.64,10.641c0.488,0.488,0.488,1.279,0,1.768C37.459,36.986,37.14,37.108,36.819,37.108z"/>
	</g>
	<g>
		<path fill="#040000" d="M16.021,29.948c-7.565,0-13.72-6.158-13.72-13.727C2.301,8.655,8.456,2.5,16.021,2.5
			c7.57,0,13.729,6.156,13.729,13.722C29.75,23.79,23.591,29.948,16.021,29.948z M16.021,5c-6.187,0-11.22,5.034-11.22,11.222
			c0,6.191,5.033,11.227,11.22,11.227c6.192,0,11.229-5.036,11.229-11.227C27.25,10.034,22.213,5,16.021,5z"/>
	</g>
</g>
</svg>
