<?xml version="1.0" encoding="utf-8"?>
<!-- Generator: Adobe Illustrator 16.0.0, SVG Export Plug-In . SVG Version: 6.00 Build 0)  -->
<!DOCTYPE svg PUBLIC "-//W3C//DTD SVG 1.1//EN" "http://www.w3.org/Graphics/SVG/1.1/DTD/svg11.dtd" [
	<!ENTITY ns_extend "http://ns.adobe.com/Extensibility/1.0/">
	<!ENTITY ns_ai "http://ns.adobe.com/AdobeIllustrator/10.0/">
	<!ENTITY ns_graphs "http://ns.adobe.com/Graphs/1.0/">
	<!ENTITY ns_vars "http://ns.adobe.com/Variables/1.0/">
	<!ENTITY ns_imrep "http://ns.adobe.com/ImageReplacement/1.0/">
	<!ENTITY ns_sfw "http://ns.adobe.com/SaveForWeb/1.0/">
	<!ENTITY ns_custom "http://ns.adobe.com/GenericCustomNamespace/1.0/">
	<!ENTITY ns_adobe_xpath "http://ns.adobe.com/XPath/1.0/">
]>
<svg version="1.1" id="Layer_1" xmlns:x="&ns_extend;" xmlns:i="&ns_ai;" xmlns:graph="&ns_graphs;"
	 xmlns="http://www.w3.org/2000/svg" xmlns:xlink="http://www.w3.org/1999/xlink" x="0px" y="0px" width="40px" height="40px"
	 viewBox="0 0 40 40" enable-background="new 0 0 40 40" xml:space="preserve">
<metadata>
	<sfw  xmlns="&ns_sfw;">
		<slices></slices>
		<sliceSourceBounds  width="32.534" height="35.435" y="-37.718" x="3.43" bottomLeftOrigin="true"></sliceSourceBounds>
	</sfw>
</metadata>
<g>
	<g>
		<path fill="#040000" d="M28.982,26.766H14.501c-0.69,0-1.25-0.56-1.25-1.25s0.56-1.25,1.25-1.25h14.481
			c1.069,0,2.22-0.913,2.461-1.955l1.979-8.513c0.093-0.398,0.035-0.755-0.163-1.004c-0.197-0.249-0.531-0.386-0.94-0.386H12.277
			c-0.69,0-1.25-0.56-1.25-1.25s0.56-1.25,1.25-1.25h20.042c1.17,0,2.227,0.485,2.897,1.331c0.672,0.846,0.906,1.984,0.642,3.125
			l-1.979,8.514C33.372,25.058,31.222,26.766,28.982,26.766z"/>
	</g>
	<g>
		<path fill="#040000" d="M13.808,30.593c-0.611,0-1.145-0.447-1.235-1.069L9.242,6.682C9.094,5.671,8.216,4.783,7.363,4.783H4.68
			c-0.69,0-1.25-0.56-1.25-1.25s0.56-1.25,1.25-1.25h2.683c2.11,0,4.022,1.774,4.353,4.038l3.331,22.841
			c0.1,0.684-0.374,1.318-1.057,1.418C13.928,30.589,13.868,30.593,13.808,30.593z"/>
	</g>
	<g>
		<path fill="#040000" d="M14.905,37.718c-2.584,0-4.688-2.103-4.688-4.687s2.103-4.687,4.688-4.687
			c2.584,0,4.687,2.103,4.687,4.687S17.489,37.718,14.905,37.718z M14.905,30.845c-1.206,0-2.188,0.98-2.188,2.187
			s0.981,2.187,2.188,2.187c1.206,0,2.187-0.98,2.187-2.187S16.11,30.845,14.905,30.845z"/>
	</g>
	<g>
		<path fill="#040000" d="M29.799,37.718c-2.586,0-4.689-2.103-4.689-4.687s2.104-4.687,4.689-4.687
			c2.584,0,4.686,2.103,4.686,4.687S32.383,37.718,29.799,37.718z M29.799,30.845c-1.207,0-2.189,0.98-2.189,2.187
			s0.982,2.187,2.189,2.187c1.205,0,2.186-0.98,2.186-2.187S31.004,30.845,29.799,30.845z"/>
	</g>
	<g>
		<path fill="#040000" d="M26.488,34.153h-7.892c-0.69,0-1.25-0.56-1.25-1.25s0.56-1.25,1.25-1.25h7.892c0.69,0,1.25,0.56,1.25,1.25
			S27.179,34.153,26.488,34.153z"/>
	</g>
</g>
</svg>
