<?xml version="1.0" encoding="utf-8"?>
<!-- Generator: Adobe Illustrator 16.0.0, SVG Export Plug-In . SVG Version: 6.00 Build 0)  -->
<!DOCTYPE svg PUBLIC "-//W3C//DTD SVG 1.1//EN" "http://www.w3.org/Graphics/SVG/1.1/DTD/svg11.dtd" [
	<!ENTITY ns_extend "http://ns.adobe.com/Extensibility/1.0/">
	<!ENTITY ns_ai "http://ns.adobe.com/AdobeIllustrator/10.0/">
	<!ENTITY ns_graphs "http://ns.adobe.com/Graphs/1.0/">
	<!ENTITY ns_vars "http://ns.adobe.com/Variables/1.0/">
	<!ENTITY ns_imrep "http://ns.adobe.com/ImageReplacement/1.0/">
	<!ENTITY ns_sfw "http://ns.adobe.com/SaveForWeb/1.0/">
	<!ENTITY ns_custom "http://ns.adobe.com/GenericCustomNamespace/1.0/">
	<!ENTITY ns_adobe_xpath "http://ns.adobe.com/XPath/1.0/">
]>
<svg version="1.1" id="Layer_1" xmlns:x="&ns_extend;" xmlns:i="&ns_ai;" xmlns:graph="&ns_graphs;"
	 xmlns="http://www.w3.org/2000/svg" xmlns:xlink="http://www.w3.org/1999/xlink" x="0px" y="0px" width="40px" height="40px"
	 viewBox="0 0 40 40" enable-background="new 0 0 40 40" xml:space="preserve">
<metadata>
	<sfw  xmlns="&ns_sfw;">
		<slices></slices>
		<sliceSourceBounds  width="30.93" height="35.039" y="-37.52" x="4.535" bottomLeftOrigin="true"></sliceSourceBounds>
	</sfw>
</metadata>
<g>
	<g>
		<path fill="#040000" d="M20,18.389c-4.385,0-7.952-3.567-7.952-7.953c0-4.386,3.567-7.955,7.952-7.955
			c4.384,0,7.952,3.569,7.952,7.955C27.951,14.821,24.384,18.389,20,18.389z M20,4.981c-3.006,0-5.452,2.447-5.452,5.455
			c0,3.007,2.446,5.453,5.452,5.453s5.452-2.446,5.452-5.453C25.451,7.428,23.006,4.981,20,4.981z"/>
	</g>
	<g>
		<path fill="#040000" d="M34.215,37.52H5.785c-0.69,0-1.25-0.56-1.25-1.25v-4.283c0-3.168,1.59-6.161,4.477-8.427
			c2.924-2.3,6.827-3.567,10.988-3.567c4.159,0,8.061,1.268,10.988,3.568c2.887,2.267,4.478,5.259,4.478,8.426v4.283
			C35.465,36.96,34.905,37.52,34.215,37.52z M7.035,35.02h25.93v-3.033c0-3.054-1.915-5.198-3.521-6.46
			c-2.489-1.957-5.843-3.034-9.444-3.034c-3.603,0-6.957,1.077-9.443,3.033c-1.607,1.262-3.522,3.405-3.522,6.461V35.02z"/>
	</g>
</g>
</svg>
