<svg width="24" height="24" viewBox="0 0 24 24" fill="none" xmlns="http://www.w3.org/2000/svg">
<g clip-path="url(#clip0_40_15532)">
<mask id="mask0_40_15532" style="mask-type:alpha" maskUnits="userSpaceOnUse" x="0" y="0" width="24" height="24">
<rect width="24" height="24" fill="#D9D9D9"/>
</mask>
<g mask="url(#mask0_40_15532)">
<path d="M8.10774 21.2155C7.6859 21.2155 7.3304 21.0709 7.04124 20.7817C6.75224 20.4926 6.60774 20.1371 6.60774 19.7155C6.60774 19.2936 6.75224 18.9381 7.04124 18.649C7.3304 18.36 7.6859 18.2155 8.10774 18.2155C8.52957 18.2155 8.88499 18.36 9.17399 18.649C9.46315 18.9381 9.60774 19.2936 9.60774 19.7155C9.60774 20.1371 9.46315 20.4926 9.17399 20.7817C8.88499 21.0709 8.52957 21.2155 8.10774 21.2155ZM17.4922 21.2155C17.0704 21.2155 16.715 21.0709 16.426 20.7817C16.1368 20.4926 15.9922 20.1371 15.9922 19.7155C15.9922 19.2936 16.1368 18.9381 16.426 18.649C16.715 18.36 17.0704 18.2155 17.4922 18.2155C17.9141 18.2155 18.2696 18.36 18.5587 18.649C18.8477 18.9381 18.9922 19.2936 18.9922 19.7155C18.9922 20.1371 18.8477 20.4926 18.5587 20.7817C18.2696 21.0709 17.9141 21.2155 17.4922 21.2155ZM2.79999 3.59998V2.59998H5.24799L9.34424 11.2155H15.9787C16.0942 11.2155 16.1968 11.1866 16.2865 11.1287C16.3763 11.0711 16.4532 10.991 16.5172 10.8885L20.0135 4.59998H21.1537L17.3692 11.4345C17.2244 11.6781 17.0362 11.8692 16.8047 12.0077C16.5734 12.1462 16.3192 12.2155 16.0422 12.2155H8.89999L7.68449 14.4462C7.58199 14.6001 7.57882 14.7667 7.67499 14.9462C7.77115 15.1257 7.9154 15.2155 8.10774 15.2155H18.9922V16.2155H8.10774C7.5244 16.2155 7.08815 15.9706 6.79899 15.4807C6.50999 14.9911 6.5039 14.4962 6.78074 13.9962L8.28449 11.3155L4.60774 3.59998H2.79999Z" fill="black"/>
</g>
</g>
<defs>
<clipPath id="clip0_40_15532">
<rect width="24" height="24" fill="white"/>
</clipPath>
</defs>
</svg>
