<svg width="28" height="28" viewBox="0 0 28 28" fill="none" xmlns="http://www.w3.org/2000/svg">
<g id="40/channel">
<circle id="bound" cx="14" cy="14" r="13.65" stroke="black" stroke-width="0.7"/>
<path id="Vector" d="M12.0524 16.216V11.7841L15.9476 14.0001L12.0524 16.216ZM20.7168 10.3896C20.5454 9.74422 20.0404 9.23596 19.3992 9.06348C18.237 8.75 13.5766 8.75 13.5766 8.75C13.5766 8.75 8.91625 8.75 7.75405 9.06348C7.11287 9.23596 6.60785 9.74422 6.43644 10.3896C6.125 11.5593 6.125 14 6.125 14C6.125 14 6.125 16.4406 6.43644 17.6104C6.60785 18.2558 7.11281 18.764 7.75405 18.9367C8.91625 19.25 13.5766 19.25 13.5766 19.25C13.5766 19.25 18.237 19.25 19.3992 18.9367C20.0404 18.764 20.5454 18.2558 20.7168 17.6104C21.0283 16.4406 21.0283 14 21.0283 14C21.0283 14 21.0283 11.5593 20.7168 10.3896Z" fill="black"/>
</g>
</svg>
