<svg width="28" height="28" viewBox="0 0 28 28" fill="none" xmlns="http://www.w3.org/2000/svg">
<g id="40/channel">
<circle id="bound" cx="14" cy="14" r="13.65" stroke="black" stroke-width="0.7"/>
<g id="shape">
<path id="Vector" d="M20.4671 11.4926C20.46 10.9782 20.3606 10.469 20.1732 9.98766C20.0107 9.58165 19.7625 9.21292 19.4444 8.90503C19.1264 8.59714 18.7455 8.35686 18.3261 8.19954C17.8353 8.02117 17.3168 7.92472 16.7926 7.9143C16.1178 7.8851 15.9038 7.87695 14.1907 7.87695C12.4776 7.87695 12.258 7.87695 11.5881 7.9143C11.0642 7.9248 10.5459 8.02124 10.0553 8.19954C9.63583 8.35675 9.25489 8.59699 8.93683 8.90489C8.61877 9.2128 8.37061 9.58159 8.20822 9.98766C8.0236 10.4625 7.92419 10.9643 7.91428 11.4715C7.88412 12.1255 7.875 12.3327 7.875 13.9911C7.875 15.6495 7.875 15.8614 7.91428 16.5106C7.92481 17.0186 8.02372 17.5198 8.20822 17.9959C8.37088 18.4018 8.61923 18.7705 8.93739 19.0782C9.25556 19.386 9.63654 19.6262 10.056 19.7833C10.5453 19.9689 11.0636 20.0722 11.5888 20.0889C12.2644 20.1181 12.4783 20.127 14.1914 20.127C15.9045 20.127 16.1241 20.127 16.794 20.0889C17.3181 20.0789 17.8367 19.9827 18.3275 19.8044C18.7468 19.6469 19.1276 19.4065 19.4456 19.0987C19.7636 18.7908 20.0119 18.4221 20.1746 18.0162C20.3591 17.5409 20.458 17.0397 20.4685 16.531C20.4987 15.8777 20.5078 15.6706 20.5078 14.0115C20.5064 12.353 20.5064 12.1425 20.4671 11.4926ZM14.1865 17.1273C12.3948 17.1273 10.9434 15.7222 10.9434 13.9877C10.9434 12.2532 12.3948 10.8481 14.1865 10.8481C15.0466 10.8481 15.8715 11.1789 16.4797 11.7677C17.0879 12.3565 17.4296 13.155 17.4296 13.9877C17.4296 14.8204 17.0879 15.6189 16.4797 16.2077C15.8715 16.7965 15.0466 17.1273 14.1865 17.1273ZM17.5587 11.4641C17.4593 11.4642 17.3609 11.4453 17.2692 11.4085C17.1774 11.3718 17.094 11.3178 17.0237 11.2498C16.9535 11.1819 16.8978 11.1011 16.8598 11.0122C16.8218 10.9234 16.8023 10.8281 16.8024 10.732C16.8024 10.6359 16.822 10.5407 16.86 10.452C16.898 10.3632 16.9536 10.2825 17.0238 10.2146C17.094 10.1466 17.1773 10.0927 17.269 10.0559C17.3608 10.0192 17.459 10.0002 17.5583 10.0002C17.6576 10.0002 17.7559 10.0192 17.8476 10.0559C17.9393 10.0927 18.0226 10.1466 18.0928 10.2146C18.163 10.2825 18.2187 10.3632 18.2566 10.452C18.2946 10.5407 18.3142 10.6359 18.3142 10.732C18.3142 11.1367 17.9761 11.4641 17.5587 11.4641Z" fill="black"/>
<path id="Vector_2" d="M14.1828 16.0368C15.3463 16.0368 16.2894 15.1237 16.2894 13.9974C16.2894 12.8711 15.3463 11.958 14.1828 11.958C13.0193 11.958 12.0762 12.8711 12.0762 13.9974C12.0762 15.1237 13.0193 16.0368 14.1828 16.0368Z" fill="black"/>
</g>
</g>
</svg>
