<svg width="92" height="24" viewBox="0 0 92 24" fill="none" xmlns="http://www.w3.org/2000/svg">
<path d="M38.6171 11.5077H38.6162H36.1494V7.17H38.5944C40.0518 7.17 40.9941 8.01673 40.9941 9.3274C40.9941 10.4105 40.1779 11.5077 38.6171 11.5077ZM39.3526 14.4854C42.2746 14.4854 44.6444 12.1816 44.6444 9.33887C44.6444 6.49526 42.2746 4.19145 39.3526 4.19145H32.6542C32.5689 4.19145 32.5 4.2576 32.5 4.34051V19.5658C32.5 19.6478 32.5689 19.7148 32.6542 19.7148H35.9952C36.0805 19.7148 36.1494 19.6478 36.1494 19.5658V14.4854H39.3526Z" fill="black"/>
<path d="M71.4477 13.7641H67.9461L69.6965 7.99046L71.4477 13.7641ZM77.0261 19.5201L71.9256 4.29572C71.9057 4.23398 71.8458 4.19252 71.7796 4.19252H67.6133C67.5471 4.19252 67.489 4.23398 67.4673 4.29572L62.3668 19.5201C62.3351 19.6171 62.4086 19.7168 62.5128 19.7168H66.0253C66.0942 19.7168 66.1541 19.6727 66.1731 19.6092L67.0428 16.7427H72.351L73.2216 19.6092C73.2415 19.6727 73.3005 19.7168 73.3685 19.7168H76.8801C76.9844 19.7168 77.0578 19.6171 77.0261 19.5201Z" fill="black"/>
<path d="M12.9053 14.7714C12.704 11.6941 9.97873 11.0282 7.06302 10.312C5.21112 9.85775 4.11648 9.45997 4.11648 8.53386C4.11648 7.71094 5.1558 7.0512 6.29124 7.0512C7.61986 7.0512 8.76891 7.59099 9.06638 8.58237C9.08542 8.64764 9.14437 8.6935 9.2133 8.6935H12.5752C12.6641 8.6935 12.7375 8.61853 12.7303 8.53209C12.4936 5.85166 9.9624 3.79216 6.41005 3.79216C2.36706 3.79216 0.263944 6.13302 0.233109 8.50739C0.204088 10.8139 1.93084 11.9393 3.62494 12.5726C6.43 13.6222 9.08814 13.6142 9.19062 15.0969C9.25592 16.0274 8.46238 16.7427 6.53067 16.7401C5.4587 16.7048 3.89248 16.307 3.66212 14.9134C3.65033 14.8394 3.58776 14.7829 3.51067 14.7829H0.155115C0.0689586 14.7829 -0.00177969 14.8526 3.41216e-05 14.9364C0.0753074 17.9343 2.90939 20 6.61864 20C11.2683 20 13.055 17.0585 12.9053 14.7714Z" fill="black"/>
<path d="M22.1998 20C25.9372 20 28.5872 17.7068 28.5872 14.2484V4.3399C28.5872 4.25787 28.5192 4.19084 28.4339 4.19084H25.0911C25.0067 4.19084 24.9378 4.25787 24.9378 4.3399V14.102C24.9378 15.5591 23.6981 16.741 22.1998 16.741C20.7016 16.741 19.4619 15.5591 19.4619 14.102V4.3399C19.4619 4.25787 19.3939 4.19084 19.3086 4.19084H15.9667C15.8814 4.19084 15.8125 4.25787 15.8125 4.3399V14.2484C15.8125 17.7068 18.4634 20 22.1998 20Z" fill="black"/>
<path d="M55.9925 9.3274C55.9925 10.4105 55.1763 11.5077 53.6155 11.5077H51.0635V11.3975V7.16912H53.5928C55.0502 7.16912 55.9925 8.01673 55.9925 9.3274ZM47.5673 4.19057C47.4821 4.19057 47.4141 4.2576 47.4141 4.34051V19.5649C47.4141 19.6478 47.4821 19.7148 47.5673 19.7148H50.9102C50.9945 19.7148 51.0635 19.6478 51.0635 19.5649V14.4854H53.4577L56.1585 19.6337C56.1848 19.6831 56.2374 19.7148 56.2954 19.7148H60.0382C60.1543 19.7148 60.2287 19.594 60.1733 19.4935L57.0191 13.7824H57.02C58.5881 12.889 59.6419 11.2343 59.6419 9.33798C59.6419 6.49526 57.273 4.19057 54.3492 4.19057H47.5673Z" fill="black"/>
<path d="M87.4482 8.20591C86.5731 8.69366 85.1746 8.91416 84.0093 8.91416C82.843 8.91416 81.4454 8.69366 80.5703 8.20591L79.0911 5.00862C79.0503 4.91953 79.0802 4.75283 79.3088 4.82604L81.3683 5.32967L80.9049 5.71952C80.9049 5.71952 81.0509 6.71795 81.8753 7.09369C82.5029 7.39093 82.9917 7.17131 83.0225 6.61035C83.0824 5.55811 82.1791 4.69639 82.0694 4.58878L83.8533 2.22764C83.9467 2.11121 84.0673 2.11209 84.1643 2.22764L85.9482 4.58878C85.8385 4.69639 84.9361 5.55811 84.9951 6.61035C85.0259 7.17131 85.5156 7.39093 86.1423 7.09369C86.9667 6.71795 87.1127 5.71952 87.1127 5.71952L86.6502 5.32967L88.7088 4.82604C88.9374 4.75283 88.9673 4.91953 88.9274 5.00862L87.4482 8.20591ZM84.0093 10.5909C82.8865 10.5909 81.3366 10.4056 80.2157 9.90113L80.553 8.95032C81.3783 9.34458 82.7024 9.59419 84.0093 9.59419C85.3152 9.59419 86.6393 9.34458 87.4646 8.95032L87.8019 9.90113C86.681 10.4056 85.1311 10.5909 84.0093 10.5909ZM84.0093 -0.000322342C80.2474 -0.000322342 77.1875 2.97646 77.1875 6.63505C77.1875 10.2936 80.2474 13.2695 84.0093 13.2695C87.7702 13.2695 90.8301 10.2936 90.8301 6.63505C90.8301 2.97646 87.7702 -0.000322342 84.0093 -0.000322342Z" fill="black"/>
</svg>
