<svg xmlns="http://www.w3.org/2000/svg" width="1695.34pt" height="474.12pt" viewBox="0 0 1695.34 474.12"><defs><clipPath id="a"><path d="M0 0h1695.34v474.121H0Zm0 0"/></clipPath></defs><g clip-path="url(#a)"><path d="M1383.27 17.832h28.449c48.68 0 127.531 19.195 127.531 111.07 0 84.332-69.93 112.79-134.73 112.79h-41.48V37.026c0-11.656 7.198-19.195 20.23-19.195m305.109 443.605c-58.969 6.168-91.54-90.503-121.36-136.44-22.28-33.942-69.59-68.563-116.218-75.423 76.789-4.457 162.84-29.137 162.84-116.215 0-70.62-43.54-124.101-203.29-124.101h-184.09c-2.402 0-4.8 1.375-4.8 4.117s2.398 4.457 4.8 4.457h42.16c8.919 0 17.49 6.168 17.49 23.313v393.894c0 8.227-6.173 20.57-17.141 20.57h-41.48c-3.43 0-4.802 2.743-4.802 4.114 0 1.37 1.371 4.457 4.801 4.457h195.402c2.739 0 5.137-1.371 5.137-4.114 0-2.742-1.707-4.457-5.476-4.457h-39.422c-5.149 0-19.2-3.43-19.2-18.855V250.605h20.22c96.679 0 103.878 104.903 151.87 164.895 41.14 51.422 94.961 57.934 125.47 57.934 13.03 0 21.94-.344 30.17-2.399 5.142-1.715 6.169-10.629-3.081-9.598M963.66 474.122c150.149 0 244.77-106.273 244.77-236.887 0-130.613-93.59-237.23-244.77-237.23-150.84 0-244.773 106.273-244.773 236.887 0 130.613 97.703 237.23 244.773 237.23m-161.808-237.23c0-125.813 56.218-227.633 161.808-227.633 103.531 0 161.809 101.82 161.809 227.633 0 125.812-53.14 227.632-161.809 227.632-105.246.34-161.808-101.82-161.808-227.632M510.453 9.258c-3.426 0-6.512 1.375-6.512 4.117s1.715 4.457 4.801 4.457h38.738c8.915 0 17.485 6.168 17.485 23.313v393.894c0 8.227-6.172 20.57-17.145 20.57h-38.394c-4.457 0-4.797 3.426-4.797 4.797 0 1.375-.344 3.774 4.797 3.774h186.496c2.742 0 6.512-.344 6.512-3.086s-.688-5.485-5.489-5.485h-35.992c-5.144 0-19.2-3.086-19.2-18.855V37.027c0-11.312 7.2-18.851 20.227-18.851h35.31c3.085 0 4.8-1.715 4.8-4.117 0-2.399-1.715-4.457-5.828-4.457H510.453Zm-367.84 433.664c0 9.945 4.453 13.031 10.969 13.031h58.277c143.645 0 195.75-110.047 195.75-220.433 0-110.387-55.195-217.344-176.55-217.344h-79.192c-8.226 0-8.914 6.855-8.914 9.937ZM5.145 9.258H225.23c189.235 0 263.286 111.074 263.286 228.66 0 119.644-94.961 226.262-275.625 226.262H5.484c-3.77 0-5.14-2.399-5.14-4.457 0-2.399 2.398-4.457 5.828-4.457H44.91c11.996 0 19.883-7.2 19.883-20.57V39.425c0-9.942-4.8-20.91-20.57-20.91H4.8C1.715 18.516 0 16.46 0 14.059c0-2.055.688-4.801 5.145-4.801" style="stroke:none;fill-rule:nonzero;fill:#000;fill-opacity:1"/></g></svg>