<svg xmlns="http://www.w3.org/2000/svg" width="394.75018" height="371.55325" viewBox="0 0 394.75019 371.55325"><path d="M124.884-79.216c-16.446-.116-30.443 2.434-45.873 5.139C42.82-67.757-.796-52.327-32.046-25.634-53.408-7.412-74.984 20.152-83.184 54.833a136.508 136.508 0 0 0-1.551 56.605c1.24 7.154 11.418 13.784 11.418 2.153C-72.173-15.883 34.407-39.96 38.167-40.736c1.338-.27 2.676-.523 3.877-.834a13.842 13.842 0 0 1 5.137-.464 1.415 1.415 0 0 1 .33 2.637C38.962-35.425 5.774-24.084-12.255-8.285c-18.3 16.109-42.298 41.949-49.8 86.535-1.28 7.676-2.52 47.125 1.164 74.884 2.113 15.993 13.027 37.608 20.316 46.913 19.54 24.987 53.328 46.271 71.725 52.765 11.825 4.168 25.917 5.429 33.148 7.135a2.074 2.074 0 0 1-.31 4.129c-11.709 1.86-39.992-4.633-63.254-16.09-17.544-8.607-29.581-20.432-41.387-33.207-12.988-14.112-19.929-28.65-24.736-27.682-7.929 1.61-1.222 18.551 2.287 25.084 11.98 22.371 36 41.776 47.922 48.29a169.519 169.519 0 0 0 92.33 19.384c73.45-6.184 118.619-41.464 138.605-69.068 11.728-16.206 37.957-50.306 37.336-100.164 0-7.948.678-63.156-17.447-91.924-4.11-6.553-16.42-33.42-63.08-56.256-3.606-1.784-19.56-9.81-32.567-10.178-5.466-.155-16.535-.601-15.507-7.134.736-4.575 27.933 1.475 30.763 2.289 19.521 5.291 44.586 20.334 61.975 33.554 53.988 41.271 48.56 128.504 48.56 128.504-2.306 92.855-56.566 132.111-95.627 155.373-.697.446-3.547 4.013-2.636 5.408.91 1.396 2.713 1.26 4.652 1.067 14.927-1.474 29.58-12.62 42.065-22.43 64.378-50.401 67.675-89.81 71.242-104.68 5.253-21.575 5.524-65.25 3.023-78.82 0 0-12.679-105.28-103.053-133.758-25.23-7.957-44.124-10.739-60.57-10.855zM-82.778 134.098c-13.201-.27-8.88 20.956-6.902 28.051a16.205 16.205 0 0 0 4.77 8.2 18.648 18.648 0 0 0 8.685 3.876c5.622 1.028 7.055-3.586 6.629-5.68a88.252 88.252 0 0 1-1.493-14.519c-.31-5.428-.872-11.883-4.42-16.322a9.382 9.382 0 0 0-7.269-3.606z" style="fill:#ee3a43;fill-opacity:1;stroke:none;stroke-width:3.82" transform="matrix(1.03337 0 0 1.03337 95.033 81.864)"/><path d="M249.94 241.826h-2.613l-1.675 4.4-1.675-4.4h-2.614v7.437h1.62v-6h.04l2.153 6h.957l2.154-6h.04v6h1.62zm-9.48 0h-6.313v1.436h2.264v6h1.786v-6h2.264z" style="font-style:normal;font-variant:normal;font-weight:400;font-stretch:normal;font-size:15.875px;font-family:&quot;Helvetica Black&quot;;text-align:center;text-decoration:none;text-decoration-line:none;text-decoration-color:#000;letter-spacing:0;word-spacing:0;text-anchor:middle;display:inline;fill:#ee3a43;fill-opacity:1;stroke:none;stroke-width:1.48189;stroke-linecap:square;stroke-dashoffset:5.70936" transform="matrix(1.03337 0 0 1.03337 95.033 81.864)"/><path d="m136.734-8.363.931.069c3.972.966 4.221 4.784 5.125 8.574 1.128 4.795 2.18 9.41 3.682 14.291.142.96.445 1.88.898 2.723a19.766 19.766 0 0 0 4.252 1.51c10.495 3.377 20.88 6.243 30.696 10.154a248.046 248.046 0 0 1 16.027 6.976 104.972 104.972 0 0 1 7.527 3.94c2.566 1.485 6.104 3.333 6.166 6.945l-.123 1.018c-.563 3.035-3.073 5.412-6.113 5.785-1.21.067-2.42.045-3.619-.067-8.483-.167-17.273-.028-25.484.096-28.863.57-57.082 1.691-84.038 4.746-36.113 4.177-70.685 9.414-105.505 14.324l-1.045-.076c-2.262-.137-4.013-1.902-4.14-4.178l.09-.75c.813-2.424 2.922-3.531 4.766-4.814 1.301-.915 2.594-1.753 3.788-2.578a305.552 305.552 0 0 1 40.287-21.682c4.746-2.1 10.308-4.123 15.23-6.25a5.887 5.887 0 0 0 3.371-2.49c2.777-3.911 5.321-7.955 7.856-11.768 2.229-3.35 4.27-6.733 6.795-9.984a8.265 8.265 0 0 1 2.763-2.709 15.64 15.64 0 0 1 2.184-.424c11.072-2.03 21.643-4.37 32.572-6.488 11.538-2.231 23.337-4.87 35.06-6.893zM80.22 66.151c2.026.654 2.425 1.668 1.729 2.979-.697 1.31-9.469 15.297-12.813 18.582-2.12 2.04-5.17 2.756-7.578 1.718-2.454-.986-2.188-5.445-1.357-7.406.83-1.96 2.505-6.325 8.369-10.574 5.816-4.197 11.65-5.299 11.65-5.299zm108.846 13.67c1.278.14 3.475 1.638 2.258 5.758-1.176 4.12-3.716 9.955-3.1 11.816.656 1.946 2.082 2.804 3.732 2.947 1.65.186 6.142.78 6.329 1.625.227.846.233 2.322-.86 3.028-1.093.747-7.407 3.633-11 3.428-3.594-.164-7.478-2.017-8.137-3.836 0 0-7.415 5.658-11.087 7.011-3.716 1.438-8.015 3.12-12.663 2.06-.952-.215-1.768-.562-2.464-1.017.248 1.474-1.596 3.59-6.317 5.762-5.007 2.285-12.316 2.63-15.412 2.564-3.054-.148-11.68-.356-14.818-.048-3.18.308-6.53 1.239-6.9 1.246-.455.05-3.633-.096-1.79-5.09 1.844-4.994 6.983-8.77 6.983-8.77l20.568-17.127s-17.392 2.52-20.234 1.375c-1.319-.512-2.922-1.928-3.286-3.326 0 0-1.14-2.913.645-4.6.498-.505 1.616-1.061 2.441-1.118.826-.016 1.401.303 2.64.445 1.113.185 21.648-3.18 21.648-3.18s6.364-1.112 9.812 2.418c2.914 3.044-2.443 8.848-2.443 8.848s-17.85 18.563-18.471 18.781c0 0 4.992.443 6.395.582 1.402.139 9.446 1.349 12.214.883 2.769-.466 3.388-.56 3.72-.649.186-.065.717-.231 1.255-.199-1.633-1.966-2.059-4.988-1.461-8.71 1.268-7.914 20.473-25.594 36.965-21.882 0 0 1.6-1.164 2.838-1.025zm-165.551.812c4.507-.044 9.19.789 13.453 2.915 7.957 3.967 12.636 14.23 9.154 22.603-5.876 14.13-18.5 18.656-24.533 20.55-6.021 1.892-9.365 1.209-9.685 1.073-.8-.338-1.412-1.603-1.28-2.344.158-.88.809-1.504 1.444-1.93.454-.304 2.94-1.59 6.492-2.863 4.659-1.67 16.398-8.91 14.988-18.707-1.372-9.839-15.129-8.248-15.129-8.248 4.301 2.284-21.316 59.638-21.894 61.155-1.387 3.57-4.632 10.364-8.31 10.539-3.715.18-2.378-9.643-2.378-9.643 3.24-30.86 23.28-59.058 23.28-59.058-5.626.844-7.718-1.114-7.973-2.067-.191-.713-.987-4.398 4.066-8.404 3.771-2.99 10.794-5.496 18.305-5.57zm156.365 7.864s-14.318 2.128-17.949 13.685c0 0 3.342.246 6.098-.822 2.671-1.026 8.584-4.38 8.584-4.38s.161-1.516.558-2.524c.396-.966 2.71-5.96 2.71-5.96zm-76.78 3.308c1.778.122 5.893 1.598 4.6 5.254-.598 5.364-10.148 14.7-10.148 14.7L84.337 125.44s6.888-2.418 18.686-.978c11.798 1.439 17.912 1.902 20.746 1.457 2.792-.443 8.822-1.188 10.127-1.766 1.305-.577 2.413-.225 2.842.516.47.739.22 1.87-1.772 3.117-1.992 1.248-8.91 5.793-21.635 5.914-12.724.121-20.154.53-20.154.53s-8.958-.35-16.88 2.198c0 0-8.97 3.927-11.52 1.12-2.55-2.808-1.49-6.383-.043-8.567 2.102-3.132 9.087-11.694 28.61-27.586 0 0-9.817 1.984-15.895 1.653 0 0-8.989-.777-6.272-6.016 0 0 1.126-2.96 3.693-2.914 2.568.047 5.615.524 10.164-.397 4.549-.88 16.29-2.037 18.067-1.916zm-40.273 2.446c1.61-.047 2.735.935 3.206 5.863.583 5.674-2.063 14.01-6.495 22.098-2 3.71-5.74 12.776-5.628 13.685 0 0 1.468 3.692-2.98 3.785-4.45.094-7.376-6.726-6.798-12.218C44.71 121.97 46.213 116.017 60 97.3c0 0 .157-2.654 2.108-2.974.25-.04.49-.07.72-.076zm99.663 32.484a4.553 4.553 0 0 1 2.082.547c2.96 1.598 1.7 5.418 1.7 5.418l-3.536 8.201s8.31-1.42 13.37-2.676c9.673-2.401 11.29-2.531 11.29-2.531s1.41.666 1.172 1.13c-.595 1.16-.135.63-1.426 2.071-.986 1.719-12.537 6.295-12.537 6.295s-11.282 5.18-16.229 5.547l-8.127 20.027-6.521 18.221s-.786 1.505-2.404 1.563c-1.619.1-2.405-2.406-2.452-3.036-.092-.625-.692-9.86.51-16.214 1.203-6.355 5.688-17.62 5.688-17.62s-10.844.298-11.295-4.033c.417-5.834 4.33-5.876 6.595-5.02 0 0 .861.574 2.11.296 1.248-.279 5.535-.795 5.535-.795s9.514-14.563 11.225-16.149c0 0 1.334-1.265 3.25-1.242zm-76.922 13.246c.667-.003 3.19-.005 2.455 3.174-.033 5.934-4.084 21.996-4.084 21.996l5.328-2.066s1.073-.589 1.66.51c.352.686-.344 1.59-.818 2.273-.924 1.329-2.621 2.76-2.621 2.76l-4.842 3.779s-5.412 21.967-7.547 24.898c-2.135 2.931-4.737 3.88-7.02 3.721-2.24-.16-4.744-2.661-4.146-7.957.556-5.295 1.71-11.969 1.879-12.562 0 0-14.881 5.754-17.445 6.02 0 0-5.964 23.231-7.848 26.161-1.703 3.302-4.793 4.803-8.26 4.399-4.32-.282-4.889-6.226-4.697-9.403.192-3.176 2.125-13.091 4.484-19.072 0 0-3.447.07-5.51-.463-2.31-.597-4.068-1.184-5.26-3.068 0 0-1.142-1.476-.634-3.85.553-2.416 3.621-3.502 3.621-3.502 5.233-1.33 12.926-2.187 12.926-2.187s14.842-34.226 21.076-34.465c7.346-.32-5.217 31.777-5.217 31.777s5.408-1.068 8.602-1.732c3.401-.708 8.16-1.9 8.16-1.9s4.395-15.453 8.947-22.333c4.511-6.879 6.143-6.905 6.81-6.908zm44.127 8.647c2.986.075 3.085 1.455 3.029 2.654 0 0-.348 2.833-.898 5.375-1.395 6.446-2.497 21.884-2.284 22.225.798.707 1.381 2.729-1.18 4.31 0 0-3.188.524-4.85-1.553-1.159-1.286-3.983-2.794-5.366-9.853 0 0-5.056 7.552-11.82 10.959-6.765 3.406-9.654 3.977-13.8 1.539-4.145-2.398-1.007-11.428-1.007-11.428s3.546-9.433 3.596-9.639c.05-.246.525-1.538.144-2.263 0 0-.843-1.762-2.685-2.422-1.842-.7-2.132-1.516-1.223-2.49.819-.926 4.566-2.223 8.275-1.91 3.755.267 6.23 4.118 6.473 6.906.242 2.787-.27 7.457-2.473 12.537 0 0 13.449-8.474 16.944-13.924 0 0 3.635-7.472 5.576-9.031 0 0 1.782-2.086 3.549-1.992z" style="fill:#fff;fill-opacity:1;stroke:none;stroke-width:3.82" transform="matrix(1.03337 0 0 1.03337 95.033 81.864)"/></svg>